<mxfile host="app.diagrams.net" agent="Mozilla/5.0 (Macintosh; Intel Mac OS X 10_15_7) AppleWebKit/537.36 (KHTML, like Gecko) Chrome/132.0.0.0 Safari/537.36" version="26.2.9">
  <diagram name="第 1 页" id="wE9Yomr52eOOLZysqePJ">
    <mxGraphModel dx="1236" dy="756" grid="1" gridSize="10" guides="1" tooltips="1" connect="1" arrows="1" fold="1" page="1" pageScale="1" pageWidth="1654" pageHeight="1169" math="0" shadow="0">
      <root>
        <mxCell id="0" />
        <mxCell id="1" parent="0" />
        <mxCell id="VI-WyuSu2JnCiDjkK7D3-1" value="compute node1" style="rounded=1;whiteSpace=wrap;html=1;fillColor=#295EEF;fontColor=#ffffff;strokeColor=none;" vertex="1" parent="1">
          <mxGeometry x="450" y="120" width="91.5" height="66" as="geometry" />
        </mxCell>
        <mxCell id="VI-WyuSu2JnCiDjkK7D3-2" value="Databend" style="html=1;verticalLabelPosition=bottom;align=center;labelBackgroundColor=#ffffff;verticalAlign=top;strokeWidth=2;strokeColor=#0080F0;shadow=0;dashed=0;shape=mxgraph.ios7.icons.data;" vertex="1" parent="1">
          <mxGeometry x="390" y="230" width="80" height="110" as="geometry" />
        </mxCell>
        <mxCell id="VI-WyuSu2JnCiDjkK7D3-3" value="Aurora" style="html=1;verticalLabelPosition=bottom;align=center;labelBackgroundColor=#ffffff;verticalAlign=top;strokeWidth=2;strokeColor=#0080F0;shadow=0;dashed=0;shape=mxgraph.ios7.icons.data;" vertex="1" parent="1">
          <mxGeometry x="590" y="230" width="80" height="110" as="geometry" />
        </mxCell>
      </root>
    </mxGraphModel>
  </diagram>
</mxfile>
